<?xml version="1.0" encoding="UTF-8"?>
<svg version="1.1" xmlns="http://www.w3.org/2000/svg" width="221" height="256">
<path d="M0 0 C0.81025123 -0.00367669 1.62050247 -0.00735338 2.45530677 -0.01114148 C5.17974457 -0.02218502 7.90414423 -0.02602329 10.62860107 -0.02983093 C12.57825339 -0.03609505 14.52790451 -0.0427418 16.47755432 -0.04974365 C21.78139238 -0.06715746 27.08522143 -0.07770636 32.389081 -0.08594918 C35.70199299 -0.09109832 39.01490218 -0.09717408 42.32781219 -0.10346031 C52.69097738 -0.12251308 63.05413543 -0.13674429 73.41731477 -0.14507228 C85.38394543 -0.15484734 97.35039124 -0.18117363 109.31695676 -0.22157317 C118.56376086 -0.25172062 127.81051193 -0.26653984 137.05736423 -0.26985329 C142.58136869 -0.27220524 148.10517571 -0.28118464 153.6291275 -0.30631447 C158.82643803 -0.32957626 164.02342082 -0.33383596 169.22076988 -0.32355309 C171.12711107 -0.32305716 173.03346829 -0.32939414 174.93976021 -0.34310913 C177.54527521 -0.36080416 180.149611 -0.35373398 182.75512695 -0.34057617 C183.50698941 -0.35154542 184.25885188 -0.36251466 185.03349805 -0.37381631 C190.30533894 -0.30967595 194.14524219 0.73916274 198.13153076 4.14717102 C202.05537018 8.75556816 202.71135953 13.44206903 202.63946533 19.38949585 C202.64570529 20.19161969 202.65194526 20.99374353 202.65837431 21.82017416 C202.67425998 24.49336044 202.66171782 27.16562925 202.64910889 29.83882141 C202.65453194 31.76113413 202.66165562 33.6834427 202.67034912 35.60574341 C202.68856234 40.81641332 202.68152346 46.02676594 202.66883278 51.2374413 C202.65869626 56.69323527 202.66810014 62.14900231 202.67437744 67.60479736 C202.68165131 76.76521171 202.67207228 85.92549698 202.65301514 95.08589172 C202.63124046 105.67480559 202.63830322 116.26341145 202.66032076 126.85231787 C202.67847437 135.94719645 202.68103345 145.04198234 202.67056608 154.13687319 C202.6643318 159.5674157 202.66349394 164.99781344 202.67671204 170.42834663 C202.68826951 175.53300964 202.6802465 180.63727555 202.65713501 185.74189568 C202.65184768 187.61477881 202.65336211 189.48769538 202.66218567 191.36056519 C202.67312372 193.91810399 202.65939933 196.47437191 202.63946533 199.03182983 C202.64838822 199.77220381 202.65731111 200.51257779 202.66650438 201.27538735 C202.58976211 206.35457382 201.35328302 209.2509808 198.13153076 213.14717102 C195.76804013 214.67069562 193.65745479 215.86219758 191.13153076 217.02217102 C190.46638458 217.33569016 189.8012384 217.64920929 189.11593628 217.972229 C183.76900082 220.45360676 178.36124838 222.69691955 172.87371826 224.84638977 C163.14661871 228.69834397 153.52951577 232.78008087 143.92727661 236.93190002 C141.18542777 238.11536112 138.44081533 239.29218028 135.69525146 240.46699524 C128.10702894 243.71427253 120.52167265 246.96279998 112.97918701 250.31513977 C111.09265772 251.13458649 109.2059617 251.95364958 107.31903076 252.77217102 C106.54124268 253.13173889 105.76345459 253.49130676 104.96209717 253.86177063 C96.2021284 257.59970332 87.70428021 257.37525935 78.86723328 254.04258728 C75.04220121 252.4944021 71.27370961 250.83024288 67.50653076 249.14717102 C65.99315297 248.49004218 64.47883092 247.83508359 62.96356201 247.18232727 C59.90007928 245.859307 56.84210024 244.5245846 53.78753662 243.18110657 C45.94310463 239.74055899 38.03252385 236.45511333 30.13153076 233.14717102 C24.35113259 230.72393923 18.57145818 228.29898477 12.79241943 225.87251282 C11.12050931 225.17097398 9.44830064 224.47014629 7.77581787 223.76997375 C5.30374247 222.7348472 2.83277315 221.69711903 0.36199951 220.65888977 C-0.37863235 220.34948959 -1.11926422 220.04008942 -1.88233948 219.72131348 C-15.43404099 214.01602752 -15.43404099 214.01602752 -18.86846924 207.14717102 C-18.97055939 204.591308 -19.01185385 202.06243554 -19.00891113 199.50611877 C-19.01188226 198.70826706 -19.01485338 197.91041534 -19.01791453 197.0883863 C-19.02662478 194.39996293 -19.02811175 191.71158397 -19.02960205 189.02314758 C-19.03422863 187.10157678 -19.03925307 185.18000691 -19.04464722 183.25843811 C-19.05778976 178.02691591 -19.06421992 172.79540656 -19.06865788 167.56387043 C-19.07158596 164.29703663 -19.07569028 161.03020636 -19.08016205 157.76337433 C-19.09384261 147.547038 -19.10350621 137.33070972 -19.10736394 127.11436486 C-19.11184453 115.31244862 -19.12939014 103.5106482 -19.15836453 91.70876718 C-19.1799695 82.59278254 -19.19006761 73.47683051 -19.19140506 64.36082053 C-19.19245405 58.91344236 -19.19838169 53.46617298 -19.21622467 48.01882172 C-19.23268455 42.89379429 -19.23487095 37.76895768 -19.22608566 32.64391327 C-19.22531414 30.76295969 -19.22967315 28.88199595 -19.23954391 27.00106812 C-19.25223227 24.43253677 -19.24640364 21.86468437 -19.23596191 19.29615784 C-19.24401832 18.55237326 -19.25207472 17.80858868 -19.26037526 17.04226518 C-19.21567868 12.33878243 -18.34542315 9.14361413 -15.86846924 5.14717102 C-10.75749772 0.41952236 -6.72157564 -0.00162885 0 0 Z " fill="#312F30" transform="translate(18.86846923828125,-0.1471710205078125)"/>
<path d="M0 0 C1.2734375 2.46875 1.2734375 2.46875 2.375 5.5 C3.71620252 8.58976572 3.71620252 8.58976572 6 11 C11.07936143 12.29651768 15.79079439 12.28498199 21 12 C21.28617187 11.08992188 21.57234375 10.17984375 21.8671875 9.2421875 C23.19089274 5.45365181 24.94104878 2.43158536 27 -1 C33.86476118 0.08918967 39.77470211 1.90238801 46 5 C46.02725341 6.7290774 46.04650987 8.45828176 46.0625 10.1875 C46.07410156 11.15042969 46.08570313 12.11335938 46.09765625 13.10546875 C46.00486622 15.85576513 45.62111685 18.32479591 45 21 C45.680625 21.20625 46.36125 21.4125 47.0625 21.625 C50.97009851 23.45408866 53.83857939 26.10279034 57 29 C60.11227967 27.86826194 62.78387138 26.52257343 65.5625 24.75 C69 23 69 23 70.95703125 23.58203125 C73.55056522 25.38213226 75.1966928 27.4409654 77.125 29.9375 C77.80820313 30.81277344 78.49140625 31.68804687 79.1953125 32.58984375 C83.02782942 37.7081618 83.02782942 37.7081618 82.81326294 39.95825195 C81.87500288 42.31381318 80.65854131 43.76726304 78.98779297 45.66796875 C75.49508071 50.18870147 75.1326687 53.72048261 75.1953125 59.3125 C75.18160614 60.16682617 75.16789978 61.02115234 75.15377808 61.90136719 C75.11670624 64.60145838 75.12017716 67.29969204 75.125 70 C75.1068571 71.84247637 75.08604942 73.68492855 75.0625 75.52734375 C75.01086345 80.01853725 74.99555425 84.50852611 75 89 C74.34926514 89.05534912 73.69853027 89.11069824 73.02807617 89.16772461 C70.08087901 89.42053693 67.1341994 89.67895326 64.1875 89.9375 C63.16333984 90.02451172 62.13917969 90.11152344 61.08398438 90.20117188 C60.10107422 90.28818359 59.11816406 90.37519531 58.10546875 90.46484375 C57.19949951 90.543396 56.29353027 90.62194824 55.36010742 90.70288086 C52.85319251 90.94046098 52.85319251 90.94046098 50 92 C49.67 95.63 49.34 99.26 49 103 C42.33986708 103.87346005 35.72124218 104.40807542 29 104 C26.59629915 101.59629915 27.375395 97.37855504 27 94 C18.09 94 9.18 94 0 94 C-0.66 97.3 -1.32 100.6 -2 104 C-4.5625718 104.02710123 -7.12485365 104.04688771 -9.6875 104.0625 C-10.40873047 104.07087891 -11.12996094 104.07925781 -11.87304688 104.08789062 C-15.81089242 104.10587165 -19.09932066 103.78013587 -23 103 C-23.33 99.37 -23.66 95.74 -24 92 C-25.765625 91.77929688 -27.53125 91.55859375 -29.296875 91.33789062 C-33.54760742 90.80654907 -37.79833984 90.27520752 -42.04907227 89.74386597 C-42.7811792 89.6523526 -43.51328613 89.56083923 -44.26757812 89.46655273 C-46.11512695 89.23560913 -46.11512695 89.23560913 -48 89 C-47.99363525 87.90123535 -47.98727051 86.8024707 -47.98071289 85.67041016 C-47.96616339 81.55105196 -47.99784516 77.43306851 -48.04272461 73.31396484 C-48.05577618 71.53927313 -48.05668005 69.76444521 -48.04467773 67.98974609 C-47.76652855 54.37472762 -47.76652855 54.37472762 -54.59936523 42.98583984 C-56 41 -56 41 -55.80639648 38.3894043 C-54.84863194 35.55148677 -53.5272466 33.74507762 -51.625 31.4375 C-51.01914062 30.69371094 -50.41328125 29.94992188 -49.7890625 29.18359375 C-49.19867188 28.46300781 -48.60828125 27.74242188 -48 27 C-46.99308812 25.67187868 -45.99073722 24.34023041 -45 23 C-40.38486888 24.31860889 -36.90102388 26.21355437 -33 29 C-32.43667969 28.71382812 -31.87335938 28.42765625 -31.29296875 28.1328125 C-29 27 -29 27 -26.67578125 26.0546875 C-23.8088007 24.62356663 -22.04816752 23.49488719 -20 21 C-19.51771242 17.48721883 -19.43021919 14.22741067 -19.44921875 10.69824219 C-19.36035687 5.41836554 -19.36035687 5.41836554 -17.3984375 3.140625 C-15.26292268 2.10086123 -13.31624755 1.50667915 -11 1 C-9.4221875 0.3503125 -9.4221875 0.3503125 -7.8125 -0.3125 C-4.62627314 -1.09135546 -3.07991487 -1.10448764 0 0 Z " fill="#FCFCFC" transform="translate(97,26)"/>
<path d="M0 0 C3.3128652 0.13820269 6.62517989 0.28683778 9.9375 0.4375 C11.35579102 0.49647461 11.35579102 0.49647461 12.80273438 0.55664062 C14.15141602 0.61948242 14.15141602 0.61948242 15.52734375 0.68359375 C16.77632446 0.73858032 16.77632446 0.73858032 18.05053711 0.79467773 C20 1 20 1 21 2 C21.23363881 3.84891946 21.41303635 5.70488031 21.5625 7.5625 C21.68818359 9.08037109 21.68818359 9.08037109 21.81640625 10.62890625 C21.87699219 11.41136719 21.93757813 12.19382813 22 13 C28.16687772 13.85731127 34.28188912 14.28684247 40.5 14.5625 C41.4178125 14.60568359 42.335625 14.64886719 43.28125 14.69335938 C45.52070562 14.79833386 47.76033656 14.89955708 50 15 C50.33 11.37 50.66 7.74 51 4 C57.6 4 64.2 4 71 4 C71.99 8.95 71.99 8.95 73 14 C86.5334077 14.19929369 86.5334077 14.19929369 100 13 C101.73956658 11.26043342 101.37190386 8.8063378 101.5625 6.4375 C101.68818359 4.91962891 101.68818359 4.91962891 101.81640625 3.37109375 C101.87699219 2.58863281 101.93757813 1.80617188 102 1 C108.69613196 0.202163 115.25766581 -0.12910853 122 0 C122.5726145 8.65284131 121.96883034 14.40313496 116.22265625 21.05859375 C102.3346768 34.73967593 82.1140139 36.54447677 63.62182617 36.44604492 C61.19948897 36.43754208 58.7795281 36.46641901 56.35742188 36.49804688 C39.1089135 36.57575712 19.57211531 34.0764988 6.46875 21.6796875 C1.14580019 15.5922715 -0.63051511 10.36568903 -0.15673828 2.27880859 C-0.10501465 1.52680176 -0.05329102 0.77479492 0 0 Z " fill="#FBFBFB" transform="translate(49,120)"/>
<path d="M0 0 C0.81025123 -0.00367669 1.62050247 -0.00735338 2.45530677 -0.01114148 C5.17974457 -0.02218502 7.90414423 -0.02602329 10.62860107 -0.02983093 C12.57825339 -0.03609505 14.52790451 -0.0427418 16.47755432 -0.04974365 C21.78139238 -0.06715746 27.08522143 -0.07770636 32.389081 -0.08594918 C35.70199299 -0.09109832 39.01490218 -0.09717408 42.32781219 -0.10346031 C52.69097738 -0.12251308 63.05413543 -0.13674429 73.41731477 -0.14507228 C85.38394543 -0.15484734 97.35039124 -0.18117363 109.31695676 -0.22157317 C118.56376086 -0.25172062 127.81051193 -0.26653984 137.05736423 -0.26985329 C142.58136869 -0.27220524 148.10517571 -0.28118464 153.6291275 -0.30631447 C158.82643803 -0.32957626 164.02342082 -0.33383596 169.22076988 -0.32355309 C171.12711107 -0.32305716 173.03346829 -0.32939414 174.93976021 -0.34310913 C177.54527521 -0.36080416 180.149611 -0.35373398 182.75512695 -0.34057617 C183.50698941 -0.35154542 184.25885188 -0.36251466 185.03349805 -0.37381631 C190.30533894 -0.30967595 194.14524219 0.73916274 198.13153076 4.14717102 C202.05537018 8.75556816 202.71135953 13.44206903 202.63946533 19.38949585 C202.64570529 20.19161969 202.65194526 20.99374353 202.65837431 21.82017416 C202.67425998 24.49336044 202.66171782 27.16562925 202.64910889 29.83882141 C202.65453194 31.76113413 202.66165562 33.6834427 202.67034912 35.60574341 C202.68856234 40.81641332 202.68152346 46.02676594 202.66883278 51.2374413 C202.65869626 56.69323527 202.66810014 62.14900231 202.67437744 67.60479736 C202.68165131 76.76521171 202.67207228 85.92549698 202.65301514 95.08589172 C202.63124046 105.67480559 202.63830322 116.26341145 202.66032076 126.85231787 C202.67847437 135.94719645 202.68103345 145.04198234 202.67056608 154.13687319 C202.6643318 159.5674157 202.66349394 164.99781344 202.67671204 170.42834663 C202.68826951 175.53300964 202.6802465 180.63727555 202.65713501 185.74189568 C202.65184768 187.61477881 202.65336211 189.48769538 202.66218567 191.36056519 C202.67312372 193.91810399 202.65939933 196.47437191 202.63946533 199.03182983 C202.64838822 199.77220381 202.65731111 200.51257779 202.66650438 201.27538735 C202.58976211 206.35457382 201.35328302 209.2509808 198.13153076 213.14717102 C195.76804013 214.67069562 193.65745479 215.86219758 191.13153076 217.02217102 C190.46638458 217.33569016 189.8012384 217.64920929 189.11593628 217.972229 C183.76900082 220.45360676 178.36124838 222.69691955 172.87371826 224.84638977 C163.14661871 228.69834397 153.52951577 232.78008087 143.92727661 236.93190002 C141.18542777 238.11536112 138.44081533 239.29218028 135.69525146 240.46699524 C128.10702894 243.71427253 120.52167265 246.96279998 112.97918701 250.31513977 C111.09265772 251.13458649 109.2059617 251.95364958 107.31903076 252.77217102 C106.54124268 253.13173889 105.76345459 253.49130676 104.96209717 253.86177063 C96.2021284 257.59970332 87.70428021 257.37525935 78.86723328 254.04258728 C75.04220121 252.4944021 71.27370961 250.83024288 67.50653076 249.14717102 C65.99315297 248.49004218 64.47883092 247.83508359 62.96356201 247.18232727 C59.90007928 245.859307 56.84210024 244.5245846 53.78753662 243.18110657 C45.94310463 239.74055899 38.03252385 236.45511333 30.13153076 233.14717102 C24.35113259 230.72393923 18.57145818 228.29898477 12.79241943 225.87251282 C11.12050931 225.17097398 9.44830064 224.47014629 7.77581787 223.76997375 C5.30374247 222.7348472 2.83277315 221.69711903 0.36199951 220.65888977 C-0.37863235 220.34948959 -1.11926422 220.04008942 -1.88233948 219.72131348 C-15.43404099 214.01602752 -15.43404099 214.01602752 -18.86846924 207.14717102 C-18.97055939 204.591308 -19.01185385 202.06243554 -19.00891113 199.50611877 C-19.01188226 198.70826706 -19.01485338 197.91041534 -19.01791453 197.0883863 C-19.02662478 194.39996293 -19.02811175 191.71158397 -19.02960205 189.02314758 C-19.03422863 187.10157678 -19.03925307 185.18000691 -19.04464722 183.25843811 C-19.05778976 178.02691591 -19.06421992 172.79540656 -19.06865788 167.56387043 C-19.07158596 164.29703663 -19.07569028 161.03020636 -19.08016205 157.76337433 C-19.09384261 147.547038 -19.10350621 137.33070972 -19.10736394 127.11436486 C-19.11184453 115.31244862 -19.12939014 103.5106482 -19.15836453 91.70876718 C-19.1799695 82.59278254 -19.19006761 73.47683051 -19.19140506 64.36082053 C-19.19245405 58.91344236 -19.19838169 53.46617298 -19.21622467 48.01882172 C-19.23268455 42.89379429 -19.23487095 37.76895768 -19.22608566 32.64391327 C-19.22531414 30.76295969 -19.22967315 28.88199595 -19.23954391 27.00106812 C-19.25223227 24.43253677 -19.24640364 21.86468437 -19.23596191 19.29615784 C-19.24401832 18.55237326 -19.25207472 17.80858868 -19.26037526 17.04226518 C-19.21567868 12.33878243 -18.34542315 9.14361413 -15.86846924 5.14717102 C-10.75749772 0.41952236 -6.72157564 -0.00162885 0 0 Z M-14.24055487 7.91078669 C-16.78577387 12.52114565 -17.4417069 16.91203454 -17.36967468 22.14788818 C-17.37520908 22.91199778 -17.38074348 23.67610738 -17.38644558 24.46337181 C-17.39996662 27.00210981 -17.38513019 29.53984997 -17.37017822 32.0785675 C-17.37396455 33.90749019 -17.37946718 35.73640999 -17.3865509 37.56532288 C-17.40048278 42.5178974 -17.38935117 47.47012362 -17.37283969 52.42267871 C-17.35895924 57.61413498 -17.36545276 62.80557165 -17.36897278 67.99703979 C-17.37167277 76.71519055 -17.35821823 85.43320346 -17.33502197 94.15132141 C-17.30842196 104.21813423 -17.30666331 114.28471651 -17.31841034 124.35155243 C-17.32920567 134.04998108 -17.32298672 143.74832666 -17.30885506 153.44674873 C-17.30310965 157.56734757 -17.30316658 161.68788533 -17.30792046 165.80848503 C-17.31270777 170.66524926 -17.30251603 175.52176247 -17.28096581 180.378479 C-17.27542132 182.15657263 -17.27491105 183.9346905 -17.27991867 185.71278572 C-17.46519875 198.26540879 -17.46519875 198.26540879 -13.86846924 210.14717102 C-11.37621464 212.31025828 -8.85368287 213.75517837 -5.86846924 215.14717102 C-5.20858002 215.46004059 -4.5486908 215.77291016 -3.86880493 216.09526062 C-1.8072082 217.0219563 0.27253613 217.87870792 2.36981201 218.72138977 C3.15240891 219.04302094 3.9350058 219.3646521 4.74131775 219.69602966 C6.42769639 220.38815322 8.11542894 221.07698554 9.80438232 221.76280212 C13.41913856 223.23062819 17.02726596 224.71444497 20.63601685 226.19696045 C22.5349351 226.97676241 24.43421226 227.7556909 26.33383179 228.53378296 C36.17795531 232.56728775 45.99464216 236.66561628 55.80667114 240.776474 C58.5801436 241.93814743 61.3544332 243.09785106 64.12884521 244.25727844 C65.84853416 244.97698182 67.56818146 245.69678473 69.28778076 246.41670227 C70.43382027 246.89540268 70.43382027 246.89540268 71.60301208 247.3837738 C76.13182153 249.28271897 80.61008059 251.2614012 85.05865479 253.34228516 C89.86022337 255.20670673 94.00226728 255.02819755 98.74481201 253.06587219 C100.20467529 252.35394714 100.20467529 252.35394714 101.69403076 251.62763977 C109.74126986 247.81685652 117.9331813 244.39363617 126.15197754 240.97172546 C128.94096712 239.80991152 131.72804296 238.64359929 134.51483154 237.47651672 C143.32328032 233.79194324 152.14069211 230.13210068 160.98846436 226.54284668 C164.76107993 225.01224571 168.53031693 223.47341013 172.29962158 221.93467712 C174.09320382 221.20581949 175.88868438 220.48161466 177.68609619 219.76225281 C180.19081522 218.75976155 182.68889897 217.74214701 185.18621826 216.72138977 C185.92075226 216.43247864 186.65528625 216.1435675 187.41207886 215.84590149 C191.8995353 213.99025455 195.06504581 212.05748453 198.13153076 208.14717102 C199.89205131 203.13726821 200.42219443 198.52524414 200.3989563 193.25997925 C200.40575297 192.11403814 200.40575297 192.11403814 200.41268694 190.94494671 C200.42528397 188.40104548 200.42371365 185.85735963 200.42205811 183.31343079 C200.42804619 181.48303453 200.43485238 179.6526408 200.44241333 177.82225037 C200.4600494 172.86152857 200.46476763 167.90087582 200.4660449 162.9401257 C200.46746811 159.83891094 200.47174086 156.73771364 200.47703934 153.63650322 C200.4955298 142.81216698 200.50371094 131.98787995 200.50213623 121.16352844 C200.50093424 111.0813594 200.52205053 100.99940423 200.55362356 90.91728932 C200.57978767 82.25296574 200.59050351 73.58871203 200.58922541 64.92434925 C200.58871594 59.75305368 200.59439166 54.58194835 200.61558151 49.41069221 C200.63496679 44.54735821 200.63508634 39.68439596 200.62054825 34.82104874 C200.61845961 33.03929666 200.62316436 31.25752128 200.63526917 29.4758091 C200.65076006 27.03722075 200.64138929 24.5999083 200.62600708 22.16134644 C200.63629421 21.46181667 200.64658133 20.76228691 200.65718019 20.04155928 C200.58330765 14.71647255 199.40163157 10.34855593 196.13153076 6.14717102 C191.18071142 2.27571139 186.00612727 1.56374796 179.89630127 1.63923645 C179.10698479 1.63299649 178.31766831 1.62675653 177.50443316 1.62032747 C174.88047232 1.60447351 172.2574503 1.61697138 169.63348389 1.6295929 C167.74382489 1.62416839 165.85417012 1.61704388 163.96452332 1.60835266 C158.84674854 1.59015556 153.7292972 1.59717196 148.61151695 1.609869 C143.24875408 1.62001536 137.88601839 1.61059878 132.52325439 1.60432434 C123.51844322 1.59705271 114.51376339 1.60662296 105.50897217 1.62568665 C95.10695955 1.6474544 84.70526058 1.64040269 74.30325556 1.61838102 C65.36288858 1.60021326 56.42261587 1.59767545 47.48223639 1.6081357 C42.14665939 1.61436304 36.81122969 1.61522711 31.47566223 1.60198975 C26.45880049 1.59041189 21.44234206 1.59849247 16.42552376 1.62156677 C14.58734366 1.6268435 12.74912946 1.62535786 10.91096306 1.61651611 C8.39577481 1.60553575 5.88186755 1.6193532 3.36676025 1.63923645 C2.28347026 1.62585212 2.28347026 1.62585212 1.17829561 1.6121974 C-4.75679387 1.70280145 -10.44092506 3.02691756 -14.24055487 7.91078669 Z " fill="#FBFAFA" transform="translate(18.86846923828125,-0.1471710205078125)"/>
<path d="M0 0 C5.67476113 1.96434039 9.31400331 5.62800662 12 11 C12.6674386 18.72478119 12.73099727 25.57597027 8 32 C4.42428459 35.90162697 1.35543627 36.87091083 -3.9375 37.375 C-8.24314875 37.2533715 -10.68393964 35.78850531 -14 33 C-18.54324339 27.96559516 -19.18653155 24.39034752 -19.3125 17.6875 C-19.34988281 16.39199219 -19.38726562 15.09648437 -19.42578125 13.76171875 C-18.79904518 8.22459184 -16.4127495 5.2484763 -12.3125 1.625 C-8.01507138 -0.48317253 -4.69964191 -0.68466006 0 0 Z " fill="#F7F7F7" transform="translate(97,175)"/>
<path d="M0 0 C3.34205272 1.97794957 4.58580921 3.25106927 6.0625 6.8125 C6.0625 8.1325 6.0625 9.4525 6.0625 10.8125 C0.66145833 11.16666667 0.66145833 11.16666667 -1.9375 10.8125 C-3.4375 8.8125 -3.4375 8.8125 -4.9375 6.8125 C-7.68711306 6.43780323 -10.14614117 6.62946008 -12.9375 6.8125 C-14.00590747 10.32790521 -14.1370806 13.64869042 -14.1875 17.3125 C-14.21328125 18.4365625 -14.2390625 19.560625 -14.265625 20.71875 C-13.90527764 24.11631084 -13.4394558 25.50644678 -10.9375 27.8125 C-8.8886352 28.29307715 -8.8886352 28.29307715 -6.75 28.0625 C-4.8628125 27.93875 -4.8628125 27.93875 -2.9375 27.8125 C-2.9375 25.8325 -2.9375 23.8525 -2.9375 21.8125 C-4.5875 21.8125 -6.2375 21.8125 -7.9375 21.8125 C-7.9375 19.8325 -7.9375 17.8525 -7.9375 15.8125 C-3.3175 15.8125 1.3025 15.8125 6.0625 15.8125 C6.0625 21.0925 6.0625 26.3725 6.0625 31.8125 C-1.50436868 35.17555275 -7.06234114 37.59380804 -15.1875 34.625 C-19.8339773 31.56254906 -22.16280169 28.01472725 -23.9375 22.8125 C-24.68854002 16.28723021 -24.53504732 9.49148542 -20.9375 3.8125 C-15.39095761 -2.5043955 -7.58777831 -2.77523393 0 0 Z " fill="#F7F7F7" transform="translate(167.9375,176.1875)"/>
<path d="M0 0 C3.55042167 1.35561555 6.7950046 2.81500665 9 6 C9.1875 8.6875 9.1875 8.6875 9 11 C7.72125 11.061875 6.4425 11.12375 5.125 11.1875 C4.40570313 11.22230469 3.68640625 11.25710937 2.9453125 11.29296875 C2.30335938 11.19628906 1.66140625 11.09960938 1 11 C0.34 10.01 -0.32 9.02 -1 8 C-4.58357241 7.74984127 -4.58357241 7.74984127 -8 8 C-8 9.65 -8 11.3 -8 13 C-7.34773438 13.17015625 -6.69546875 13.3403125 -6.0234375 13.515625 C-0.64614735 15.00667301 3.6159348 16.51523022 8 20 C9.72784719 23.45569439 9.48497711 27.22121999 9 31 C6.63223256 34.42010852 3.98084759 35.91431429 0 37 C-6.37252929 37.62680616 -10.65879632 36.57308109 -16 33 C-18.46213498 30.61480674 -18.9541706 29.67216451 -19.1875 26.25 C-19.125625 25.5075 -19.06375 24.765 -19 24 C-16.03 24 -13.06 24 -10 24 C-9.34 25.65 -8.68 27.3 -8 29 C-5.69 29 -3.38 29 -1 29 C-0.67 27.68 -0.34 26.36 0 25 C-1.175625 24.4225 -2.35125 23.845 -3.5625 23.25 C-5.04269402 22.50202962 -6.52184764 21.75199709 -8 21 C-8.98226562 20.51466797 -8.98226562 20.51466797 -9.984375 20.01953125 C-13.94724126 17.94495383 -16.41928042 16.24818387 -18 12 C-18 8.4375 -18 8.4375 -17 5 C-11.64191683 -0.22069642 -7.22727799 -0.63280314 0 0 Z " fill="#F5F5F5" transform="translate(131,175)"/>
<path d="M0 0 C8.25 0 16.5 0 25 0 C25 2.31 25 4.62 25 7 C19.72 7 14.44 7 9 7 C9 9.31 9 11.62 9 14 C13.62 14 18.24 14 23 14 C23 16.31 23 18.62 23 21 C18.38 21 13.76 21 9 21 C9 23.97 9 26.94 9 30 C14.28 30 19.56 30 25 30 C25 31.98 25 33.96 25 36 C16.75 36 8.5 36 0 36 C0 24.12 0 12.24 0 0 Z " fill="#F3F3F3" transform="translate(50,175)"/>
<path d="M0 0 C5.34740414 1.95385921 8.45618143 4.91236287 11 10 C11.58241501 14.22250881 11.87812788 16.63219222 9.54296875 20.26953125 C6.2857872 24.07529074 4.12162135 26.52207735 -1.015625 27.30859375 C-5.56927907 27.57130456 -8.3394332 27.25431563 -11.9375 24.3125 C-15.46492342 20.82590324 -16.74682432 17.98320946 -17.375 13.0625 C-16.76366289 8.0699136 -14.12837629 5.19106387 -10.75 1.625 C-7.12956463 -0.51434817 -4.05442346 -0.65316842 0 0 Z " fill="#343233" transform="translate(81,79)"/>
<path d="M0 0 C3.95664641 2.05779073 6.42868719 4.11551757 8.03515625 8.2734375 C8.56734608 13.86143067 8.28531178 17.50654272 5.03515625 22.2734375 C0.93103292 25.98669194 -2.40513742 26.91766608 -7.78515625 26.6640625 C-12.03619744 25.90222716 -14.79453151 23.58619824 -17.6015625 20.4375 C-20.00516191 16.6220442 -19.58350704 12.62470267 -18.96484375 8.2734375 C-15.1368307 0.47563314 -8.44277615 -3.12198084 0 0 Z " fill="#333132" transform="translate(147.96484375,79.7265625)"/>
<path d="M0 0 C2.94740287 2.21321227 3.89950913 3.38043817 4.49609375 7.05859375 C4.47675781 8.17363281 4.45742187 9.28867188 4.4375 10.4375 C4.43621094 11.54996094 4.43492188 12.66242188 4.43359375 13.80859375 C3.92297633 17.566922 2.70551744 20.29448256 0 23 C-3.4375 22.8125 -3.4375 22.8125 -7 22 C-9.6477087 18.52703144 -9.3001375 14.65311161 -9.3125 10.4375 C-9.32861328 9.76525391 -9.34472656 9.09300781 -9.36132812 8.40039062 C-9.36421022 5.49811926 -9.33853361 3.49097271 -7.6640625 1.0625 C-5.00201833 -0.63720896 -3.07407804 -0.43915401 0 0 Z " fill="#353334" transform="translate(96,182)"/>
<path d="M0 0 C5.56818182 0.56818182 5.56818182 0.56818182 7 2 C7.12658222 4.65822657 7.18520214 7.27887424 7.1875 9.9375 C7.19974609 10.67935547 7.21199219 11.42121094 7.22460938 12.18554688 C7.22988478 14.12513629 7.12188902 16.0642371 7 18 C5 20 5 20 1.9375 20.1875 C-1 20 -1 20 -2 19 C-2.12663091 16.17583618 -2.18520548 13.38705207 -2.1875 10.5625 C-2.19974609 9.77294922 -2.21199219 8.98339844 -2.22460938 8.16992188 C-2.22987279 6.11192565 -2.12206285 4.05437991 -2 2 C-1.34 1.34 -0.68 0.68 0 0 Z " fill="#393738" transform="translate(108,87)"/>
<path d="M0 0 C-2.08291164 3.12436746 -2.61276477 3.5365026 -5.9375 4.75 C-6.62714844 5.01296875 -7.31679687 5.2759375 -8.02734375 5.546875 C-10 6 -10 6 -13 5 C-13 4.34 -13 3.68 -13 3 C-11.40084119 2.30093058 -9.79544955 1.61610532 -8.1875 0.9375 C-7.29417969 0.55464844 -6.40085938 0.17179688 -5.48046875 -0.22265625 C-3 -1 -3 -1 0 0 Z " fill="#F1F1F1" transform="translate(196,221)"/>
</svg>
